<?xml version="1.0" encoding="UTF-8" standalone="no"?>
<!DOCTYPE svg PUBLIC "-//W3C//DTD SVG 1.1//EN" "http://www.w3.org/Graphics/SVG/1.1/DTD/svg11.dtd">
<svg version="1.1" xmlns="http://www.w3.org/2000/svg" xmlns:xlink="http://www.w3.org/1999/xlink" preserveAspectRatio="xMidYMid meet" viewBox="0 0 100 100" width="100" height="100"><defs><path d="M55.89 15.94L56.13 15.98L56.37 16.03L56.61 16.07L56.85 16.12L57.09 16.17L57.33 16.22L57.57 16.28L57.81 16.33L58.05 16.39L58.29 16.44L58.53 16.5L58.76 16.57L59 16.63L59.24 16.69L59.48 16.76L59.71 16.83L59.95 16.9L60.19 16.97L60.42 17.04L60.66 17.12L60.89 17.19L61.13 17.27L61.36 17.35L61.6 17.43L61.83 17.51L62.06 17.6L62.3 17.68L62.53 17.77L62.76 17.86L62.99 17.95L63.22 18.05L63.45 18.14L63.68 18.24L63.91 18.34L64.14 18.44L64.37 18.54L64.6 18.64L64.82 18.75L65.05 18.85L65.28 18.96L74.38 13.8L82.48 20.61L78.77 30.3L78.92 30.5L79.06 30.71L79.2 30.91L79.34 31.12L79.48 31.32L79.62 31.53L79.75 31.74L79.89 31.95L80.02 32.15L80.15 32.36L80.27 32.58L80.4 32.79L80.53 33L80.65 33.21L80.77 33.43L80.89 33.64L81.01 33.86L81.13 34.07L81.24 34.29L81.36 34.51L81.47 34.72L81.58 34.94L81.69 35.16L81.79 35.38L81.9 35.6L82 35.82L82.1 36.04L82.21 36.26L82.3 36.49L82.4 36.71L82.5 36.93L82.59 37.16L82.68 37.38L82.78 37.61L82.87 37.83L82.95 38.06L83.04 38.29L83.12 38.51L83.21 38.74L83.29 38.97L83.31 38.97L93.52 41.71L94.41 52.1L84.81 56.29L84.79 56.3L84.75 56.52L84.71 56.74L84.66 56.97L84.61 57.19L84.57 57.42L84.52 57.65L84.47 57.88L84.41 58.11L84.36 58.34L84.3 58.57L84.25 58.8L84.19 59.04L84.13 59.27L84.07 59.51L84.01 59.74L83.94 59.98L83.87 60.21L83.81 60.45L83.74 60.69L83.67 60.92L83.59 61.16L83.52 61.4L83.44 61.63L83.36 61.87L83.28 62.11L83.2 62.34L83.12 62.58L83.04 62.81L82.95 63.04L82.86 63.28L82.77 63.51L82.68 63.74L82.58 63.97L82.49 64.2L82.39 64.43L82.29 64.66L82.19 64.88L82.08 65.11L81.98 65.33L81.87 65.55L87.25 74.61L80.42 82.52L70.5 78.73L70.3 78.87L70.09 79.01L69.89 79.15L69.68 79.28L69.47 79.41L69.26 79.55L69.05 79.68L68.84 79.8L68.63 79.93L68.42 80.06L68.21 80.18L67.99 80.3L67.78 80.42L67.56 80.54L67.34 80.66L67.13 80.77L66.91 80.89L66.69 81L66.47 81.11L66.25 81.22L66.03 81.33L65.81 81.43L65.59 81.54L65.37 81.64L65.14 81.74L64.92 81.84L64.69 81.94L64.47 82.03L64.24 82.13L64.02 82.22L63.79 82.31L63.57 82.4L63.34 82.49L63.11 82.58L62.88 82.66L62.65 82.75L62.42 82.83L62.19 82.91L61.96 82.99L61.73 83.07L61.72 83.08L59.05 93.1L47.6 93.59L42.34 83.79L42.07 83.72L41.8 83.66L41.54 83.59L41.27 83.53L41.01 83.46L40.75 83.4L40.5 83.33L40.25 83.26L40 83.2L39.76 83.13L39.51 83.07L39.27 83L39.04 82.93L38.81 82.86L38.58 82.8L38.35 82.73L38.13 82.66L37.91 82.59L37.69 82.52L37.48 82.46L37.26 82.39L37.06 82.32L36.85 82.25L36.65 82.18L36.45 82.11L36.26 82.04L36.06 81.97L35.87 81.9L35.69 81.83L35.51 81.76L35.33 81.69L35.15 81.62L34.97 81.55L34.8 81.48L34.64 81.4L34.47 81.33L34.31 81.26L34.15 81.19L34 81.12L33.85 81.04L25.18 86.34L17.3 79.61L21.13 69.95L20.98 69.75L20.84 69.55L20.7 69.34L20.56 69.14L20.42 68.93L20.29 68.72L20.16 68.52L20.02 68.31L19.89 68.1L19.77 67.89L19.64 67.68L19.51 67.47L19.39 67.26L19.27 67.04L19.15 66.83L19.03 66.62L18.91 66.4L18.8 66.19L18.69 65.97L18.57 65.75L18.46 65.54L18.36 65.32L18.25 65.1L18.14 64.88L18.04 64.66L17.94 64.44L17.84 64.22L17.74 64L17.64 63.78L17.54 63.56L17.45 63.33L17.36 63.11L17.27 62.88L17.18 62.66L17.09 62.43L17 62.21L16.91 61.98L16.83 61.75L16.75 61.53L16.67 61.3L16.66 61.3L16.61 61.28L16.51 61.26L16.44 61.24L16.35 61.22L16.15 61.16L16.03 61.13L15.75 61.05L15.42 60.97L15.23 60.92L14.83 60.81L14.37 60.68L14.12 60.62L13.86 60.55L13.3 60.4L12.69 60.24L12.03 60.06L11.68 59.96L10.94 59.77L10.15 59.56L9.74 59.44L8.87 59.21L7.95 58.97L7.48 58.84L6.48 58.57L5.59 48.18L15.2 43.98L15.22 43.98L15.26 43.74L15.3 43.5L15.35 43.27L15.39 43.03L15.44 42.8L15.49 42.56L15.54 42.33L15.6 42.09L15.65 41.86L15.71 41.62L15.77 41.39L15.83 41.16L15.89 40.92L15.96 40.69L16.02 40.46L16.09 40.23L16.16 40L16.23 39.77L16.3 39.54L16.38 39.3L16.45 39.08L16.53 38.85L16.61 38.62L16.69 38.39L16.77 38.16L16.86 37.93L16.94 37.7L17.03 37.48L17.12 37.25L17.21 37.03L17.3 36.8L17.4 36.57L17.49 36.35L17.59 36.13L17.69 35.9L17.79 35.68L17.9 35.46L18 35.23L18.11 35.01L18.21 34.79L12.92 25.8L19.74 17.89L29.58 21.62L29.79 21.48L29.99 21.34L30.2 21.2L30.4 21.07L30.61 20.93L30.82 20.8L31.03 20.67L31.24 20.54L31.45 20.41L31.66 20.29L31.87 20.16L32.09 20.04L32.3 19.92L32.52 19.8L32.73 19.68L32.95 19.56L33.16 19.45L33.38 19.34L33.6 19.22L33.82 19.11L34.04 19.01L34.26 18.9L34.48 18.79L34.7 18.69L34.92 18.59L35.14 18.49L35.36 18.39L35.59 18.29L35.81 18.2L36.04 18.1L36.26 18.01L36.49 17.92L36.72 17.83L36.94 17.74L37.17 17.66L37.4 17.57L37.63 17.49L37.86 17.41L38.09 17.33L38.32 17.25L38.31 17.22L40.97 7.2L51.52 6.41L55.89 15.92L55.89 15.94ZM47.86 32.87L46.58 33.05L45.32 33.33L44.09 33.7L42.88 34.16L41.7 34.71L40.56 35.35L39.47 36.08L38.43 36.9L37.44 37.8L36.51 38.8L35.66 39.86L34.91 40.97L34.26 42.12L33.7 43.3L33.24 44.51L32.88 45.75L32.61 47L32.44 48.26L32.36 49.53L32.38 50.8L32.49 52.07L32.69 53.33L32.99 54.57L33.38 55.79L33.86 56.99L34.43 58.15L35.09 59.28L35.84 60.37L36.69 61.41L37.62 62.39L38.64 63.32L39.73 64.16L40.86 64.91L42.03 65.57L43.24 66.13L44.47 66.6L45.73 66.97L47 67.24L48.29 67.43L49.58 67.52L50.87 67.51L52.15 67.42L53.43 67.23L54.69 66.96L55.92 66.59L57.13 66.13L58.31 65.58L59.45 64.94L60.54 64.21L61.59 63.39L62.57 62.48L63.5 61.49L64.35 60.42L65.1 59.31L65.76 58.17L66.31 56.98L66.77 55.77L67.13 54.54L67.4 53.29L67.57 52.03L67.65 50.76L67.64 49.48L67.53 48.22L67.32 46.96L67.03 45.72L66.64 44.49L66.16 43.3L65.59 42.13L64.92 41L64.17 39.92L63.33 38.88L62.4 37.9L61.38 36.97L60.29 36.12L59.15 35.37L57.98 34.72L56.77 34.16L55.54 33.69L54.28 33.32L53.01 33.04L51.72 32.86L50.43 32.77L49.14 32.77L47.86 32.87Z" id="kpzaTHO20"></path></defs><g><g><g><g><use xlink:href="#kpzaTHO20" opacity="1" fill-opacity="0" stroke="#ffffff" stroke-width="2" stroke-opacity="1"></use></g></g></g></g></svg>